<?xml version="1.0" encoding="utf-8"?>
<!-- Generator: Adobe Illustrator 24.0.3, SVG Export Plug-In . SVG Version: 6.00 Build 0)  -->
<svg version="1.1" id="Layer_1" xmlns="http://www.w3.org/2000/svg" xmlns:xlink="http://www.w3.org/1999/xlink" x="0px" y="0px"
	 viewBox="0 0 287.8 108" style="enable-background:new 0 0 287.8 108;" xml:space="preserve">
<style type="text/css">
	.st0{fill:#FF0000;}
</style>
<g>
	<path class="st0" d="M-408.2,98c0-4.8,3.2-7.1,5-7.1c1.2,0,1.6,0.8,1.6,1.6c0,2.7-3.7,4.6-5.7,4.9c0,0.3,0,0.5,0,0.6
		c0,4.1,2.9,9.2,11.9,9.2c12.6,0,26.6-9.1,37.5-20.1c15.5-15.9,28.3-38.9,46.9-57.5c7.9-7.9,15-13.9,24.3-19
		c-2.7-4.8-8.4-8.6-17-8.6c-32.4,0-70.9,31-70.9,54.8c0,5.7,2.3,10,8.9,10c14.2,0,33.9-24.2,37.7-42.9h0.1
		c-2.8,22.7-23.8,43.7-37.8,43.7c-7.7,0-9.8-5.3-9.8-10.8c0-24.5,39.2-55.5,71.5-55.5c8.8,0,14.7,3.8,17.7,9
		c6.9-3.7,14.6-6.2,21.7-7.1v0.1c-7.5,1.4-14.6,3.9-21.4,7.5c1.7,3.4,2.5,6.9,2.5,10.7c0,7.2-1.9,14.2-7,20.5
		c-6.5,8-16.4,14.1-22.9,14.1c-3.7,0-5.2-2.1-5.2-4.3c0-4.6,5.6-8.7,8.6-9.4v0.1c-3,1.1-7.8,5-7.8,9.3c0,1.9,1.3,3.6,4.4,3.6
		c6.6,0,13.7-6.4,19.1-13.1c6.7-8.1,9.8-15.3,9.8-22.7c0-2.7-0.6-5.7-2-8.4c-7.9,4.4-15.5,10.5-22.8,18.3
		c-12.3,13.1-24.3,36.1-46,56.8c-13.9,13.2-27.5,21.6-40.3,21.6C-405.2,107.9-408.2,102.3-408.2,98z"/>
	<path class="st0" d="M-326.9,101c0-5.6,3.7-13.6,8.9-20c9.6-11.7,27-26.6,35.8-26.6c3.5,0,4.3,2.4,4.3,4.7
		c0,6.4-4.6,13.2-11.2,21.4l-1.4,1.8c-10.9,13.6-23.9,25.6-31.5,25.6C-326.8,107.9-326.9,103-326.9,101z M-312.7,79.4
		c-7.1,8.8-13,17.6-13,23.7c0,2.5,1.3,4.1,3.7,4.1c7.1,0,20.1-12,30.5-24.9c4.3-5.4,12.7-17.3,12.7-23.6c0-2.1-1.1-3.5-3.5-3.5
		C-286.5,55.2-296.7,59.7-312.7,79.4z"/>
	<path class="st0" d="M-293.6,100.9c0-3.6,2.4-5.7,4.1-5.7c1,0,1.4,0.8,1.4,1.5c0,2.2-3,3.9-4.6,4.5c0.1,3.3,2.2,6.1,6.9,6.1
		c6.5,0,12.5-4.6,18.7-13.7c10.2-14.7,11.7-26.7,18.9-36c-7.4,7.1-16.8,14.3-24.6,14.3c-5,0-7.9-2.9-7.1-7.5h0.7
		c-0.7,4.1,1.9,6.8,6.4,6.8c10.5,0,24.1-13.8,31.4-21.2l0.6,0.5l-3.9,3.9c-11.2,11.2-10.3,29.1-20.7,42
		c-6.1,7.7-14.5,11.5-20.5,11.5C-291,108.1-293.6,104.8-293.6,100.9z"/>
	<path class="st0" d="M-246.7,103.1c0-5.5,4.3-12.8,11.8-22l22.8-28.1c-11.1,12.4-29.3,28.7-48.7,33.7v-0.1
		c19.4-5.5,39.5-24.1,51.1-36.6l19.5-24h3.8l-8,9.9h19.8v0.7h-20.5l-36.1,44.6c-8.6,10.5-14.3,18.6-14.3,23.2c0,1.6,1.2,2.8,3.2,2.8
		c9.6,0,34.5-25.6,42.7-34.9l-0.3,0.5c-8.4,10-32.3,35.2-42.5,35.2C-246.1,107.9-246.7,104.8-246.7,103.1z"/>
	<path class="st0" d="M-216.6,100.8c0-5.7,3.3-13.1,8.8-19.9c9.1-11.3,27.3-26.5,36.2-26.5c3.7,0,4.3,2.5,4.3,4.3
		c0,3.6-2.7,9.1-7.1,15.4l15.7-19.4h3.8l-20.7,25.5c-9.7,12-16.1,19.8-16.1,24.5c0,1.3,0.8,2.5,2.7,2.5c9.8,0,35.4-27.4,42.2-34.9
		l-0.3,0.5c-7.2,8.4-31.6,35.2-42,35.2c-3.4,0-3.8-3-3.8-4.4c0-4.8,3.3-10.1,8.8-17.3c-9.3,11-20.4,21.7-27.4,21.7
		C-216.4,107.9-216.6,103-216.6,100.8z M-179,79.7c4.5-5.4,10.9-14.9,10.9-20.9c0-2.2-1-3.6-3.5-3.6c-4.1,0-14.4,3.9-30.9,24.2
		c-7.2,8.8-12.9,17.6-12.9,23.5c0,2.8,1.4,4.3,3.8,4.3C-204.1,107.2-191.6,94.6-179,79.7z"/>
	<path class="st0" d="M-135.3,101.3c0-5.9,3.3-13.3,9.5-20.9c8.6-10.5,26.7-25.9,35.6-25.9c3.7,0,4.3,2.5,4.3,4.3
		c0,3.6-2.5,9-7,15.2l58.6-72.3h3.8l-63,77.6c-11.6,14.3-17.1,20.8-17.1,25.2c0,1.3,0.7,2.7,2.9,2.7c8,0,25.4-21,30-26h1
		c-4.8,5.1-22.4,26.8-31.1,26.8c-3.6,0-3.9-3.5-3.9-4.5c0-5,3.2-9.8,8.3-16.4c-9.6,11.2-20.2,20.9-26.9,20.9
		C-135.2,107.9-135.3,102.8-135.3,101.3z M-98.6,80.7c5.3-6.4,11.8-15.9,11.8-21.9c0-2.2-1.1-3.6-3.6-3.6c-4.1,0-14.3,4-30.7,24.2
		c-7.2,8.8-13.1,17.7-13.1,23.7c0,2.6,1.3,4.1,3.7,4.1C-123,107.2-109.7,94.1-98.6,80.7z"/>
	<path class="st0" d="M-87,100.8c0-5.7,3.3-13.1,8.8-19.9c9.1-11.3,27.3-26.5,36.2-26.5c3.7,0,4.3,2.5,4.3,4.3
		c0,3.6-2.7,9.1-7.1,15.4l15.7-19.4h3.8L-46,80.2c-9.7,12-16.1,19.8-16.1,24.5c0,1.3,0.8,2.5,2.7,2.5c9.8,0,35.4-27.4,42.2-34.9
		l-0.3,0.5c-7.2,8.4-31.6,35.2-42,35.2c-3.4,0-3.8-3-3.8-4.4c0-4.8,3.3-10.1,8.8-17.3c-9.3,11-20.4,21.7-27.4,21.7
		C-86.7,107.9-87,103-87,100.8z M-49.4,79.7c4.5-5.4,10.9-14.9,10.9-20.9c0-2.2-1-3.6-3.5-3.6c-4.1,0-14.4,3.9-30.9,24.2
		c-7.2,8.8-12.9,17.6-12.9,23.5c0,2.8,1.4,4.3,3.8,4.3C-74.5,107.2-62,94.6-49.4,79.7z"/>
	<path class="st0" d="M102.8,41.9c-9.3,3-19.6,5.5-29.6,9.1c-6.4,8.8-8.9,12.5-15.9,21.4C42.2,91,23.1,107.9,8.6,107.9
		c-5.3,0-8.6-3-8.6-8.2C0,85.8,25.9,65.1,69.3,51l2.7-3.7c7.4-10.2,17.1-20.5,28.6-29.5c-4.7,3.5-8.7,6.3-12,6.3S85,21.6,85,20.6
		c0-5.8,7.9-10.2,7.9-14.3c0-2-1.4-4.3-5.5-4.3C77.1,2,61.2,13.1,48.3,34h-0.2C60.4,12.2,77.4,1.3,87.4,1.3c5.8,0,6.5,3.7,6.5,6
		c0,6.8-7.9,10.1-7.9,13.8c0,1,0.6,2.3,2.6,2.3c4.5,0,10.5-5.2,17.8-10.1c2.1-1.4,4.2-2.8,6.4-4.2l0.3,0.5
		c-11.2,7.3-18.6,12.6-32.3,30.9c-2.8,3.8-5,6.8-7,9.6c10-3.6,20.4-6.1,29.5-9.1c5.8-7.3,10.2-13.6,16.8-21.5
		c9.8-11.6,20.2-18.1,28-18.1c5.1,0,6.6,3,6.6,6.1c0,11.9-20.2,24.7-49.5,33.9c-0.6,0.8-1.4,1.8-2.1,2.7
		c-6.2,7.5-12.7,11.8-18.6,13.5c0.7,1.4,1.1,3.2,1.1,5.2c0,5.3-3.4,9.8-9.1,17c-10.1,12.4-12.1,16.4-12.1,21c0,3.2,2.5,6.6,8.2,6.6
		c18.9,0,46.5-31.1,46.5-45.7c0-3.9-1.6-6.3-5-6.3c-12.9,0-27.4,22-32.1,32.6h-0.1c4-10.9,19-33.3,32.2-33.3c4.6,0,5.8,3.4,5.8,7
		c0,15.2-28.2,46.5-47.3,46.5c-7.3,0-9.5-4.8-9.5-9.1c0-5.9,3.9-12.6,9.4-19.2c6.2-7.6,12.1-14.1,12.1-18.6c0-1.1-0.3-2.5-0.9-3.4
		c-1.2,0.3-2.5,0.4-3.8,0.4c-2.9,0-4.6-1-4.6-2.3c0-1.4,1.5-1.9,2.9-1.9c2.5,0,4.5,1.1,5.8,2.9c6-1.6,11-5.8,14.5-10
		C100.2,45.1,101.5,43.4,102.8,41.9z M8.6,107.2c12.5,0,30.2-14,40-27.6L68.7,52C26.2,65.9,0.9,86.3,0.9,99.7
		C0.8,104.4,3.6,107.2,8.6,107.2z M80.1,57.3c1.1,0,2.3-0.1,3.4-0.4c-1.1-1.4-2.7-2.4-5-2.4c-1.2,0-2.1,0.5-2.1,1.2
		S77.6,57.3,80.1,57.3z M106,40.3c28.7-9.1,48.1-21.6,48.1-32.9c0-2.9-1.4-5.4-5.8-5.4c-7.5,0-17.2,6.1-27,17.4
		C115.9,25.8,111.1,33.6,106,40.3z"/>
	<path class="st0" d="M88.1,102.8c14.8-6.1,34.4-21,45.4-31c9.3-9,20.6-17.3,27.2-17.3c3.5,0,4.3,2.4,4.3,4.7
		c0,6.4-4.6,13.2-11.2,21.4l-1.4,1.8C141.5,96,128.5,108,120.9,108c-4.8,0-4.9-4.9-4.9-6.9c0-5.6,3.7-13.6,8.9-20
		c1.5-1.9,3.3-3.8,5.2-5.8C119.8,84.8,103.8,97.3,88.1,102.8L88.1,102.8z M130.2,79.4c-7.1,8.8-13,17.6-13,23.7
		c0,2.5,1.3,4.1,3.7,4.1c7.1,0,20.1-12,30.5-24.9c4.3-5.5,12.7-17.3,12.7-23.6c0-2.1-1.1-3.5-3.5-3.5
		C156.3,55.2,146.1,59.7,130.2,79.4z"/>
	<path class="st0" d="M177.1,80.6c12.1-14.9,16.4-19.8,16.4-23c0-1.4-0.8-2.3-2.2-2.3c-6.6,0-17.1,14.9-24.6,14.9
		c-3,0-4.2-2.4-3.8-5.2l0.5-0.2c-0.2,2.6,0.7,4.7,3.3,4.7c7.2,0,17.6-15,24.7-15c3.1,0,3.3,3.3,3.3,4.3c0,5.4-6.7,13.2-13.8,21.9
		l-7.9,9.8c8.4-9.3,33.9-35.9,44.3-35.9c3.4,0,3.6,3,3.6,4.1c0,5.4-3.8,9.9-14.4,22.7c-8.4,10.2-16.9,18.7-17,23.2
		c0,1.7,1.1,2.7,3,2.7c9.9,0,35.7-27.4,42.5-34.9l-0.3,0.5c-7.1,8.2-31.9,35.2-42.3,35.2c-3.7,0-4-3.3-4-4.5c0-5.2,4.4-10.6,14-22.2
		c8.7-10.5,17.3-19.5,17.3-23.6c0-1.5-1-2.4-2.7-2.4c-10.4,0-39.1,30.4-46.2,37.8l-11.7,14.4h-3.8L177.1,80.6z"/>
	<path class="st0" d="M218,100.8c0-5.7,3.3-13.1,8.8-19.9c9.1-11.3,27.3-26.5,36.2-26.5c3.7,0,4.3,2.5,4.3,4.3
		c0,3.6-2.7,9.1-7.1,15.4l15.7-19.4h3.8L259,80.2c-9.7,12-16.1,19.8-16.1,24.5c0,1.3,0.8,2.5,2.7,2.5c9.8,0,35.4-27.4,42.2-34.9
		l-0.3,0.5c-7.2,8.4-31.6,35.2-42,35.2c-3.4,0-3.8-3-3.8-4.4c0-4.8,3.3-10.1,8.8-17.3c-9.3,11-20.4,21.7-27.4,21.7
		C218.3,107.9,218,103,218,100.8z M255.6,79.7c4.5-5.4,10.9-14.9,10.9-20.9c0-2.2-1-3.6-3.5-3.6c-4.1,0-14.4,3.9-30.9,24.2
		c-7.2,8.8-12.9,17.6-12.9,23.5c0,2.8,1.4,4.3,3.8,4.3C230.5,107.2,243,94.6,255.6,79.7z"/>
</g>
</svg>
