<?xml version="1.0" encoding="utf-8"?>
<!-- Generator: Adobe Illustrator 24.0.3, SVG Export Plug-In . SVG Version: 6.00 Build 0)  -->
<svg version="1.1" id="Layer_1" xmlns="http://www.w3.org/2000/svg" xmlns:xlink="http://www.w3.org/1999/xlink" x="0px" y="0px"
	 viewBox="0 0 430.2 228.8" style="enable-background:new 0 0 430.2 228.8;" xml:space="preserve">
<style type="text/css">
	.st0{fill:#FF0000;}
</style>
<path class="st0" d="M89,98c0-4.8,3.2-7.1,5-7.1c1.2,0,1.6,0.8,1.6,1.6c0,2.7-3.7,4.6-5.7,4.9c0,0.3,0,0.5,0,0.6
	c0,4.1,2.9,9.2,11.9,9.2c12.6,0,26.6-9.1,37.5-20.1c15.5-15.9,28.3-38.9,46.9-57.5c7.9-7.9,15-13.9,24.3-19c-2.7-4.8-8.4-8.6-17-8.6
	c-32.4,0-70.9,31-70.9,54.8c0,5.7,2.3,10,8.9,10c14.2,0,33.9-24.2,37.7-42.9h0.1c-2.8,22.7-23.8,43.7-37.8,43.7
	c-7.7,0-9.8-5.3-9.8-10.8c0-24.5,39.2-55.5,71.5-55.5c8.8,0,14.7,3.8,17.7,9c6.9-3.7,14.6-6.2,21.7-7.1v0.1
	c-7.5,1.4-14.6,3.9-21.4,7.5c1.7,3.4,2.5,6.9,2.5,10.7c0,7.2-1.9,14.2-7,20.5c-6.5,8-16.4,14.1-22.9,14.1c-3.7,0-5.2-2.1-5.2-4.3
	c0-4.6,5.6-8.7,8.6-9.4v0.1c-3,1.1-7.8,5-7.8,9.3c0,1.9,1.3,3.6,4.4,3.6c6.6,0,13.7-6.4,19.1-13.1c6.7-8.1,9.8-15.3,9.8-22.7
	c0-2.7-0.6-5.7-2-8.4c-7.9,4.4-15.5,10.5-22.8,18.3c-12.3,13.1-24.3,36.1-46,56.8c-13.9,13.2-27.5,21.6-40.3,21.6
	C92,107.9,89,102.3,89,98z"/>
<path class="st0" d="M170.3,101c0-5.6,3.7-13.6,8.9-20c9.6-11.7,27-26.6,35.8-26.6c3.5,0,4.3,2.4,4.3,4.7c0,6.4-4.6,13.2-11.2,21.4
	l-1.4,1.8c-10.9,13.6-23.9,25.6-31.5,25.6C170.4,107.9,170.3,103,170.3,101z M184.5,79.4c-7.1,8.8-13,17.6-13,23.7
	c0,2.5,1.3,4.1,3.7,4.1c7.1,0,20.1-12,30.5-24.9c4.3-5.4,12.7-17.3,12.7-23.6c0-2.1-1.1-3.5-3.5-3.5
	C210.7,55.2,200.5,59.7,184.5,79.4z"/>
<path class="st0" d="M203.6,100.9c0-3.6,2.4-5.7,4.1-5.7c1,0,1.4,0.8,1.4,1.5c0,2.2-3,3.9-4.6,4.5c0.1,3.3,2.2,6.1,6.9,6.1
	c6.5,0,12.5-4.6,18.7-13.7c10.2-14.7,11.7-26.7,18.9-36c-7.4,7.1-16.8,14.3-24.6,14.3c-5,0-7.9-2.9-7.1-7.5h0.7
	c-0.7,4.1,1.9,6.8,6.4,6.8c10.5,0,24.1-13.8,31.4-21.2l0.6,0.5l-3.9,3.9c-11.2,11.2-10.3,29.1-20.7,42c-6.1,7.7-14.5,11.5-20.5,11.5
	C206.2,108.1,203.6,104.8,203.6,100.9z"/>
<path class="st0" d="M250.5,103.1c0-5.5,4.3-12.8,11.8-22L285.1,53c-11.1,12.4-29.3,28.7-48.7,33.7v-0.1
	c19.4-5.5,39.5-24.1,51.1-36.6L307,26h3.8l-8,9.9h19.8v0.7h-20.5L266,81.2c-8.6,10.5-14.3,18.6-14.3,23.2c0,1.6,1.2,2.8,3.2,2.8
	c9.6,0,34.5-25.6,42.7-34.9l-0.3,0.5c-8.4,10-32.3,35.2-42.5,35.2C251.1,107.9,250.5,104.8,250.5,103.1z"/>
<path class="st0" d="M280.6,100.8c0-5.7,3.3-13.1,8.8-19.9c9.1-11.3,27.3-26.5,36.2-26.5c3.7,0,4.3,2.5,4.3,4.3
	c0,3.6-2.7,9.1-7.1,15.4l15.7-19.4h3.8l-20.7,25.5c-9.7,12-16.1,19.8-16.1,24.5c0,1.3,0.8,2.5,2.7,2.5c9.8,0,35.4-27.4,42.2-34.9
	l-0.3,0.5c-7.2,8.4-31.6,35.2-42,35.2c-3.4,0-3.8-3-3.8-4.4c0-4.8,3.3-10.1,8.8-17.3c-9.3,11-20.4,21.7-27.4,21.7
	C280.8,107.9,280.6,103,280.6,100.8z M318.2,79.7c4.5-5.4,10.9-14.9,10.9-20.9c0-2.2-1-3.6-3.5-3.6c-4.1,0-14.4,3.9-30.9,24.2
	c-7.2,8.8-12.9,17.6-12.9,23.5c0,2.8,1.4,4.3,3.8,4.3C293.1,107.2,305.6,94.6,318.2,79.7z"/>
<path class="st0" d="M8.7,221.5c0-5.9,3.3-13.3,9.5-20.9c8.6-10.5,26.7-25.9,35.6-25.9c3.7,0,4.3,2.5,4.3,4.3c0,3.6-2.5,9-7,15.2
	l58.6-72.3h3.8l-63,77.6c-11.6,14.3-17.1,20.8-17.1,25.2c0,1.3,0.7,2.7,2.9,2.7c8,0,25.4-21,30-26h1c-4.8,5.1-22.4,26.8-31.1,26.8
	c-3.6,0-3.9-3.5-3.9-4.5c0-5,3.2-9.8,8.3-16.4c-9.6,11.2-20.2,20.9-26.9,20.9C8.8,228.1,8.7,223,8.7,221.5z M45.4,200.9
	c5.3-6.4,11.8-15.9,11.8-21.9c0-2.2-1.1-3.6-3.6-3.6c-4.1,0-14.3,4-30.7,24.2c-7.2,8.8-13.1,17.7-13.1,23.7c0,2.6,1.3,4.1,3.7,4.1
	C21,227.4,34.3,214.2,45.4,200.9z"/>
<path class="st0" d="M57,221c0-5.7,3.3-13.1,8.8-19.9c9.1-11.3,27.3-26.5,36.2-26.5c3.7,0,4.3,2.5,4.3,4.3c0,3.6-2.7,9.1-7.1,15.4
	l15.7-19.4h3.8L98,200.4c-9.7,12-16.1,19.8-16.1,24.5c0,1.3,0.8,2.5,2.7,2.5c9.8,0,35.4-27.4,42.2-34.9l-0.3,0.5
	c-7.2,8.4-31.6,35.2-42,35.2c-3.4,0-3.8-3-3.8-4.4c0-4.8,3.3-10.1,8.8-17.3c-9.3,11-20.4,21.7-27.4,21.7C57.3,228.1,57,223.2,57,221
	z M94.6,199.9c4.5-5.4,10.9-14.9,10.9-20.9c0-2.2-1-3.6-3.5-3.6c-4.1,0-14.4,3.9-30.9,24.2c-7.2,8.8-12.9,17.6-12.9,23.5
	c0,2.8,1.4,4.3,3.8,4.3C69.5,227.4,82,214.8,94.6,199.9z"/>
<path class="st0" d="M242.2,162.5c-9.3,3-19.6,5.5-29.6,9.1c-6.4,8.8-8.9,12.5-15.9,21.4c-15.1,18.6-34.2,35.5-48.7,35.5
	c-5.3,0-8.6-3-8.6-8.2c0-13.9,25.9-34.6,69.3-48.7l2.7-3.7c7.4-10.2,17.1-20.5,28.6-29.5c-4.7,3.5-8.7,6.3-12,6.3s-3.6-2.5-3.6-3.5
	c0-5.8,7.9-10.2,7.9-14.3c0-2-1.4-4.3-5.5-4.3c-10.3,0-26.2,11.1-39.1,32h-0.2c12.3-21.8,29.3-32.7,39.3-32.7c5.8,0,6.5,3.7,6.5,6
	c0,6.8-7.9,10.1-7.9,13.8c0,1,0.6,2.3,2.6,2.3c4.5,0,10.5-5.2,17.8-10.1c2.1-1.4,4.2-2.8,6.4-4.2l0.3,0.5
	c-11.2,7.3-18.6,12.6-32.3,30.9c-2.8,3.8-5,6.8-7,9.6c10-3.6,20.4-6.1,29.5-9.1c5.8-7.3,10.2-13.6,16.8-21.5
	c9.8-11.6,20.2-18.1,28-18.1c5.1,0,6.6,3,6.6,6.1c0,11.9-20.2,24.7-49.5,33.9c-0.6,0.8-1.4,1.8-2.1,2.7
	c-6.2,7.5-12.7,11.8-18.6,13.5c0.7,1.4,1.1,3.2,1.1,5.2c0,5.3-3.4,9.8-9.1,17c-10.1,12.4-12.1,16.4-12.1,21c0,3.2,2.5,6.6,8.2,6.6
	c18.9,0,46.5-31.1,46.5-45.7c0-3.9-1.6-6.3-5-6.3c-12.9,0-27.4,22-32.1,32.6h-0.1c4-10.9,19-33.3,32.2-33.3c4.6,0,5.8,3.4,5.8,7
	c0,15.2-28.2,46.5-47.3,46.5c-7.3,0-9.5-4.8-9.5-9.1c0-5.9,3.9-12.6,9.4-19.2c6.2-7.6,12.1-14.1,12.1-18.6c0-1.1-0.3-2.5-0.9-3.4
	c-1.2,0.3-2.5,0.4-3.8,0.4c-2.9,0-4.6-1-4.6-2.3c0-1.4,1.5-1.9,2.9-1.9c2.5,0,4.5,1.1,5.8,2.9c6-1.6,11-5.8,14.5-10
	C239.6,165.7,240.9,164,242.2,162.5z M148,227.8c12.5,0,30.2-14,40-27.6l20.1-27.6c-42.5,13.9-67.8,34.3-67.8,47.7
	C140.2,225,143,227.8,148,227.8z M219.5,177.9c1.1,0,2.3-0.1,3.4-0.4c-1.1-1.4-2.7-2.4-5-2.4c-1.2,0-2.1,0.5-2.1,1.2
	C215.8,177,217,177.9,219.5,177.9z M245.4,160.9c28.7-9.1,48.1-21.6,48.1-32.9c0-2.9-1.4-5.4-5.8-5.4c-7.5,0-17.2,6.1-27,17.4
	C255.3,146.4,250.5,154.2,245.4,160.9z"/>
<path class="st0" d="M227.5,223.4c14.8-6.1,34.4-21,45.4-31c9.3-9,20.6-17.3,27.2-17.3c3.5,0,4.3,2.4,4.3,4.7
	c0,6.4-4.6,13.2-11.2,21.4l-1.4,1.8c-10.9,13.6-23.9,25.6-31.5,25.6c-4.8,0-4.9-4.9-4.9-6.9c0-5.6,3.7-13.6,8.9-20
	c1.5-1.9,3.3-3.8,5.2-5.8C259.2,205.4,243.2,217.9,227.5,223.4L227.5,223.4z M269.6,200c-7.1,8.8-13,17.6-13,23.7
	c0,2.5,1.3,4.1,3.7,4.1c7.1,0,20.1-12,30.5-24.9c4.3-5.5,12.7-17.3,12.7-23.6c0-2.1-1.1-3.5-3.5-3.5
	C295.7,175.8,285.5,180.3,269.6,200z"/>
<path class="st0" d="M316.5,201.2c12.1-14.9,16.4-19.8,16.4-23c0-1.4-0.8-2.3-2.2-2.3c-6.6,0-17.1,14.9-24.6,14.9
	c-3,0-4.2-2.4-3.8-5.2l0.5-0.2c-0.2,2.6,0.7,4.7,3.3,4.7c7.2,0,17.6-15,24.7-15c3.1,0,3.3,3.3,3.3,4.3c0,5.4-6.7,13.2-13.8,21.9
	l-7.9,9.8c8.4-9.3,33.9-35.9,44.3-35.9c3.4,0,3.6,3,3.6,4.1c0,5.4-3.8,9.9-14.4,22.7c-8.4,10.2-16.9,18.7-17,23.2
	c0,1.7,1.1,2.7,3,2.7c9.9,0,35.7-27.4,42.5-34.9l-0.3,0.5c-7.1,8.2-31.9,35.2-42.3,35.2c-3.7,0-4-3.3-4-4.5c0-5.2,4.4-10.6,14-22.2
	c8.7-10.5,17.3-19.5,17.3-23.6c0-1.5-1-2.4-2.7-2.4c-10.4,0-39.1,30.4-46.2,37.8l-11.7,14.4h-3.8L316.5,201.2z"/>
<path class="st0" d="M357.4,221.4c0-5.7,3.3-13.1,8.8-19.9c9.1-11.3,27.3-26.5,36.2-26.5c3.7,0,4.3,2.5,4.3,4.3
	c0,3.6-2.7,9.1-7.1,15.4l15.7-19.4h3.8l-20.7,25.5c-9.7,12-16.1,19.8-16.1,24.5c0,1.3,0.8,2.5,2.7,2.5c9.8,0,35.4-27.4,42.2-34.9
	l-0.3,0.5c-7.2,8.4-31.6,35.2-42,35.2c-3.4,0-3.8-3-3.8-4.4c0-4.8,3.3-10.1,8.8-17.3c-9.3,11-20.4,21.7-27.4,21.7
	C357.7,228.5,357.4,223.6,357.4,221.4z M395,200.3c4.5-5.4,10.9-14.9,10.9-20.9c0-2.2-1-3.6-3.5-3.6c-4.1,0-14.4,3.9-30.9,24.2
	c-7.2,8.8-12.9,17.6-12.9,23.5c0,2.8,1.4,4.3,3.8,4.3C369.9,227.8,382.4,215.2,395,200.3z"/>
</svg>
